<mxfile host="app.diagrams.net" modified="2023-12-03T20:13:38.772Z" agent="Mozilla/5.0 (Windows NT 10.0; Win64; x64) AppleWebKit/537.36 (KHTML, like Gecko) Chrome/119.0.0.0 Safari/537.36" etag="3AmzCdK1_7ROF_ulDz9j" version="22.1.5" type="device">
  <diagram name="Page-1" id="ql1rpQexLiob4iBRqdNY">
    <mxGraphModel dx="1173" dy="637" grid="1" gridSize="10" guides="1" tooltips="1" connect="1" arrows="1" fold="1" page="1" pageScale="1" pageWidth="850" pageHeight="1100" math="0" shadow="0">
      <root>
        <mxCell id="0" />
        <mxCell id="1" parent="0" />
        <object label="Voter" id="bF3GZzOTFfM9Ziam9RGE-1">
          <mxCell style="shape=umlActor;verticalLabelPosition=bottom;verticalAlign=top;html=1;outlineConnect=0;" vertex="1" parent="1">
            <mxGeometry x="690" y="450" width="30" height="60" as="geometry" />
          </mxCell>
        </object>
        <mxCell id="bF3GZzOTFfM9Ziam9RGE-2" value="Admin" style="shape=umlActor;verticalLabelPosition=bottom;verticalAlign=top;html=1;outlineConnect=0;" vertex="1" parent="1">
          <mxGeometry x="80" y="360" width="30" height="60" as="geometry" />
        </mxCell>
        <mxCell id="bF3GZzOTFfM9Ziam9RGE-8" value="Register a Vote" style="ellipse;whiteSpace=wrap;html=1;" vertex="1" parent="1">
          <mxGeometry x="380" y="40" width="140" height="70" as="geometry" />
        </mxCell>
        <mxCell id="bF3GZzOTFfM9Ziam9RGE-9" value="Monitor and Manage" style="ellipse;whiteSpace=wrap;html=1;" vertex="1" parent="1">
          <mxGeometry x="380" y="130" width="140" height="70" as="geometry" />
        </mxCell>
        <mxCell id="bF3GZzOTFfM9Ziam9RGE-11" value="Registration Request" style="ellipse;whiteSpace=wrap;html=1;" vertex="1" parent="1">
          <mxGeometry x="380" y="220" width="140" height="70" as="geometry" />
        </mxCell>
        <mxCell id="bF3GZzOTFfM9Ziam9RGE-12" value="Registration" style="ellipse;whiteSpace=wrap;html=1;" vertex="1" parent="1">
          <mxGeometry x="380" y="310" width="140" height="70" as="geometry" />
        </mxCell>
        <mxCell id="bF3GZzOTFfM9Ziam9RGE-13" value="Cast a Vote" style="ellipse;whiteSpace=wrap;html=1;" vertex="1" parent="1">
          <mxGeometry x="380" y="400" width="140" height="70" as="geometry" />
        </mxCell>
        <mxCell id="bF3GZzOTFfM9Ziam9RGE-19" value="&lt;br&gt;Check Vote Status and Validation" style="ellipse;whiteSpace=wrap;html=1;" vertex="1" parent="1">
          <mxGeometry x="380" y="490" width="140" height="70" as="geometry" />
        </mxCell>
        <mxCell id="bF3GZzOTFfM9Ziam9RGE-20" value="Tally Votes and Declare Results" style="ellipse;whiteSpace=wrap;html=1;" vertex="1" parent="1">
          <mxGeometry x="380" y="580" width="140" height="70" as="geometry" />
        </mxCell>
        <mxCell id="bF3GZzOTFfM9Ziam9RGE-43" value="" style="endArrow=open;endFill=1;endSize=12;html=1;rounded=0;exitX=0.5;exitY=0.5;exitDx=0;exitDy=0;exitPerimeter=0;" edge="1" parent="1" source="bF3GZzOTFfM9Ziam9RGE-1" target="bF3GZzOTFfM9Ziam9RGE-13">
          <mxGeometry width="160" relative="1" as="geometry">
            <mxPoint x="680" y="300" as="sourcePoint" />
            <mxPoint x="570" y="440" as="targetPoint" />
          </mxGeometry>
        </mxCell>
        <mxCell id="bF3GZzOTFfM9Ziam9RGE-44" value="" style="endArrow=open;endFill=1;endSize=12;html=1;rounded=0;exitX=0.5;exitY=0.5;exitDx=0;exitDy=0;exitPerimeter=0;entryX=0.145;entryY=0.729;entryDx=0;entryDy=0;entryPerimeter=0;" edge="1" parent="1" source="bF3GZzOTFfM9Ziam9RGE-2" target="bF3GZzOTFfM9Ziam9RGE-8">
          <mxGeometry width="160" relative="1" as="geometry">
            <mxPoint x="110" y="290" as="sourcePoint" />
            <mxPoint x="320" y="86" as="targetPoint" />
          </mxGeometry>
        </mxCell>
        <mxCell id="bF3GZzOTFfM9Ziam9RGE-45" value="" style="endArrow=open;endFill=1;endSize=12;html=1;rounded=0;entryX=0.093;entryY=0.776;entryDx=0;entryDy=0;exitX=0.5;exitY=0.5;exitDx=0;exitDy=0;exitPerimeter=0;entryPerimeter=0;" edge="1" parent="1" source="bF3GZzOTFfM9Ziam9RGE-2" target="bF3GZzOTFfM9Ziam9RGE-9">
          <mxGeometry width="160" relative="1" as="geometry">
            <mxPoint x="120" y="280" as="sourcePoint" />
            <mxPoint x="300" y="165" as="targetPoint" />
          </mxGeometry>
        </mxCell>
        <mxCell id="bF3GZzOTFfM9Ziam9RGE-46" value="" style="endArrow=open;endFill=1;endSize=12;html=1;rounded=0;entryX=0.036;entryY=0.252;entryDx=0;entryDy=0;entryPerimeter=0;exitX=0.5;exitY=0.5;exitDx=0;exitDy=0;exitPerimeter=0;" edge="1" parent="1" source="bF3GZzOTFfM9Ziam9RGE-2" target="bF3GZzOTFfM9Ziam9RGE-20">
          <mxGeometry width="160" relative="1" as="geometry">
            <mxPoint x="130" y="300" as="sourcePoint" />
            <mxPoint x="310" y="175" as="targetPoint" />
          </mxGeometry>
        </mxCell>
        <mxCell id="bF3GZzOTFfM9Ziam9RGE-47" value="" style="endArrow=open;endFill=1;endSize=12;html=1;rounded=0;entryX=1;entryY=0.5;entryDx=0;entryDy=0;exitX=0.5;exitY=0.5;exitDx=0;exitDy=0;exitPerimeter=0;" edge="1" parent="1" source="bF3GZzOTFfM9Ziam9RGE-1" target="bF3GZzOTFfM9Ziam9RGE-19">
          <mxGeometry width="160" relative="1" as="geometry">
            <mxPoint x="705" y="300" as="sourcePoint" />
            <mxPoint x="461" y="433" as="targetPoint" />
          </mxGeometry>
        </mxCell>
        <mxCell id="bF3GZzOTFfM9Ziam9RGE-48" value="Potential Voter" style="shape=umlActor;verticalLabelPosition=bottom;verticalAlign=top;html=1;" vertex="1" parent="1">
          <mxGeometry x="690" y="220" width="30" height="60" as="geometry" />
        </mxCell>
        <mxCell id="bF3GZzOTFfM9Ziam9RGE-49" value="Candidate" style="shape=umlActor;verticalLabelPosition=bottom;verticalAlign=top;html=1;" vertex="1" parent="1">
          <mxGeometry x="690" y="330" width="30" height="60" as="geometry" />
        </mxCell>
        <mxCell id="bF3GZzOTFfM9Ziam9RGE-50" value="System" style="shape=umlActor;verticalLabelPosition=bottom;verticalAlign=top;html=1;" vertex="1" parent="1">
          <mxGeometry x="80" y="190" width="30" height="60" as="geometry" />
        </mxCell>
        <mxCell id="bF3GZzOTFfM9Ziam9RGE-51" value="" style="endArrow=open;endFill=1;endSize=12;html=1;rounded=0;exitX=0.5;exitY=0.5;exitDx=0;exitDy=0;exitPerimeter=0;" edge="1" parent="1" source="bF3GZzOTFfM9Ziam9RGE-48" target="bF3GZzOTFfM9Ziam9RGE-11">
          <mxGeometry width="160" relative="1" as="geometry">
            <mxPoint x="510" y="139.33" as="sourcePoint" />
            <mxPoint x="450" y="255" as="targetPoint" />
          </mxGeometry>
        </mxCell>
        <mxCell id="bF3GZzOTFfM9Ziam9RGE-52" value="" style="endArrow=open;endFill=1;endSize=12;html=1;rounded=0;entryX=1;entryY=0.5;entryDx=0;entryDy=0;exitX=0.5;exitY=0.5;exitDx=0;exitDy=0;exitPerimeter=0;" edge="1" parent="1" source="bF3GZzOTFfM9Ziam9RGE-49" target="bF3GZzOTFfM9Ziam9RGE-12">
          <mxGeometry width="160" relative="1" as="geometry">
            <mxPoint x="600" y="434.33" as="sourcePoint" />
            <mxPoint x="450" y="340" as="targetPoint" />
          </mxGeometry>
        </mxCell>
        <mxCell id="bF3GZzOTFfM9Ziam9RGE-56" value="" style="endArrow=open;endFill=1;endSize=12;html=1;rounded=0;exitX=0.5;exitY=0.5;exitDx=0;exitDy=0;exitPerimeter=0;entryX=0;entryY=0.5;entryDx=0;entryDy=0;" edge="1" parent="1" source="bF3GZzOTFfM9Ziam9RGE-50" target="bF3GZzOTFfM9Ziam9RGE-8">
          <mxGeometry width="160" relative="1" as="geometry">
            <mxPoint x="90" y="220" as="sourcePoint" />
            <mxPoint x="310" y="80" as="targetPoint" />
          </mxGeometry>
        </mxCell>
        <mxCell id="bF3GZzOTFfM9Ziam9RGE-57" value="" style="endArrow=open;endFill=1;endSize=12;html=1;rounded=0;entryX=0;entryY=0.5;entryDx=0;entryDy=0;exitX=0.811;exitY=0.506;exitDx=0;exitDy=0;exitPerimeter=0;" edge="1" parent="1" source="bF3GZzOTFfM9Ziam9RGE-50" target="bF3GZzOTFfM9Ziam9RGE-9">
          <mxGeometry width="160" relative="1" as="geometry">
            <mxPoint x="90" y="220" as="sourcePoint" />
            <mxPoint x="250" y="220" as="targetPoint" />
          </mxGeometry>
        </mxCell>
        <mxCell id="bF3GZzOTFfM9Ziam9RGE-59" value="" style="endArrow=open;endFill=1;endSize=12;html=1;rounded=0;exitX=0.5;exitY=0.5;exitDx=0;exitDy=0;exitPerimeter=0;" edge="1" parent="1" source="bF3GZzOTFfM9Ziam9RGE-50" target="bF3GZzOTFfM9Ziam9RGE-11">
          <mxGeometry width="160" relative="1" as="geometry">
            <mxPoint x="180" y="220" as="sourcePoint" />
            <mxPoint x="320" y="175" as="targetPoint" />
          </mxGeometry>
        </mxCell>
        <mxCell id="bF3GZzOTFfM9Ziam9RGE-60" value="" style="endArrow=open;endFill=1;endSize=12;html=1;rounded=0;entryX=0.071;entryY=0.571;entryDx=0;entryDy=0;entryPerimeter=0;exitX=0.5;exitY=0.5;exitDx=0;exitDy=0;exitPerimeter=0;" edge="1" parent="1" source="bF3GZzOTFfM9Ziam9RGE-50" target="bF3GZzOTFfM9Ziam9RGE-12">
          <mxGeometry width="160" relative="1" as="geometry">
            <mxPoint x="110" y="230" as="sourcePoint" />
            <mxPoint x="322" y="257" as="targetPoint" />
          </mxGeometry>
        </mxCell>
        <mxCell id="bF3GZzOTFfM9Ziam9RGE-61" value="" style="endArrow=open;endFill=1;endSize=12;html=1;rounded=0;entryX=0.055;entryY=0.386;entryDx=0;entryDy=0;entryPerimeter=0;exitX=0.5;exitY=0.5;exitDx=0;exitDy=0;exitPerimeter=0;" edge="1" parent="1" source="bF3GZzOTFfM9Ziam9RGE-50" target="bF3GZzOTFfM9Ziam9RGE-13">
          <mxGeometry width="160" relative="1" as="geometry">
            <mxPoint x="105" y="230" as="sourcePoint" />
            <mxPoint x="330" y="360" as="targetPoint" />
          </mxGeometry>
        </mxCell>
        <mxCell id="bF3GZzOTFfM9Ziam9RGE-62" value="" style="endArrow=open;endFill=1;endSize=12;html=1;rounded=0;entryX=0.026;entryY=0.395;entryDx=0;entryDy=0;entryPerimeter=0;exitX=0.5;exitY=0.5;exitDx=0;exitDy=0;exitPerimeter=0;" edge="1" parent="1" source="bF3GZzOTFfM9Ziam9RGE-50" target="bF3GZzOTFfM9Ziam9RGE-19">
          <mxGeometry width="160" relative="1" as="geometry">
            <mxPoint x="115" y="240" as="sourcePoint" />
            <mxPoint x="328" y="437" as="targetPoint" />
          </mxGeometry>
        </mxCell>
        <mxCell id="bF3GZzOTFfM9Ziam9RGE-63" value="" style="endArrow=open;endFill=1;endSize=12;html=1;rounded=0;entryX=0.093;entryY=0.119;entryDx=0;entryDy=0;entryPerimeter=0;exitX=0.5;exitY=0.5;exitDx=0;exitDy=0;exitPerimeter=0;" edge="1" parent="1" source="bF3GZzOTFfM9Ziam9RGE-50" target="bF3GZzOTFfM9Ziam9RGE-20">
          <mxGeometry width="160" relative="1" as="geometry">
            <mxPoint x="100" y="220" as="sourcePoint" />
            <mxPoint x="324" y="528" as="targetPoint" />
          </mxGeometry>
        </mxCell>
      </root>
    </mxGraphModel>
  </diagram>
</mxfile>
